<svg width="28" height="28" viewBox="0 0 28 28" xmlns="http://www.w3.org/2000/svg">
<path d="M22.3572 17.9527C21.7522 16.8601 19.1025 16.1642 16.7627 16.0323C16.5512 15.8059 16.3366 15.5677 16.1165 15.3174C14.1058 13.0183 13.2915 9.67726 12.9874 7.90731C12.9512 7.53226 12.9115 7.22048 12.878 6.98822C12.8509 6.80341 12.794 6.41797 12.3932 6.41797C12.2649 6.41797 12.141 6.4731 12.0529 6.57115C11.9101 6.73427 11.9314 6.9096 11.9567 7.11203C11.9852 7.34429 12.0281 7.65517 12.0891 8.00988C12.2603 9.80694 12.3412 13.2285 10.9581 15.9464C10.8139 16.2297 10.6702 16.5017 10.5274 16.7611C7.93917 17.5139 5.85066 18.8564 5.54475 19.9698C5.43404 20.3729 5.53029 20.7592 5.81632 21.0583C6.14934 21.4063 6.54246 21.5825 6.98484 21.5825C8.20939 21.5825 9.60519 20.2188 11.1334 17.5306C11.8139 17.3517 12.4894 17.227 13.1424 17.161C13.3968 17.1353 13.8084 17.0815 14.0615 17.0426C14.7587 16.9351 15.5476 16.8917 16.3583 16.9184C18.2344 18.8686 19.7685 19.8573 20.918 19.8573C21.5353 19.8568 22.0463 19.5559 22.3563 19.01C22.547 18.672 22.5479 18.2961 22.3572 17.9527ZM6.98439 20.6788C6.7928 20.6788 6.62922 20.6011 6.46881 20.4334C6.40329 20.3652 6.38883 20.3064 6.41594 20.2097C6.57364 19.6363 7.89851 18.6535 9.83474 17.94C8.74078 19.6661 7.69381 20.6788 6.98439 20.6788ZM13.9227 16.1507C13.6824 16.1877 13.2919 16.2383 13.0507 16.2636C12.6119 16.307 12.1609 16.3761 11.7059 16.4692C11.7249 16.4322 11.7439 16.3947 11.7628 16.3572C12.4411 15.0246 12.8613 13.4268 13.0168 11.5954C13.639 13.3369 14.4505 14.7856 15.436 15.9125C15.465 15.946 15.4952 15.9798 15.5241 16.0142C14.9553 16.0277 14.4184 16.0743 13.9227 16.1507ZM21.5683 18.5663C21.4183 18.832 21.205 18.9554 20.8991 18.9554H20.8986C20.1801 18.9554 19.0753 18.2753 17.7527 17.0282C19.7997 17.2853 21.2985 17.9048 21.5674 18.3905C21.6062 18.461 21.6062 18.4985 21.5683 18.5663Z" fill="currentColor"/>
<rect x="0.5" y="0.5" width="27" height="27" rx="13.5" stroke="currentColor" fill="none"/>
</svg>
