<svg width="16" height="13" viewBox="0 0 16 13" xmlns="http://www.w3.org/2000/svg">
<path d="M14.4919 0.115225L1.44142 5.05833C0.727524 5.26416 0.750272 5.96939 1.27784 6.14163L4.54941 7.16209L5.80062 11.0002C5.95337 11.4195 6.07687 11.5776 6.33686 11.582C6.59685 11.5863 6.71493 11.4856 6.99875 11.2342C7.33024 10.9233 7.83614 10.4326 8.63562 9.65477L12.0372 12.1691C12.6633 12.5147 13.1205 12.3359 13.2722 11.5874L15.4052 1.03603C15.6327 0.117392 15.091 -0.156684 14.4919 0.115225ZM5.05856 6.9216L12.4911 2.26341C12.8583 2.0175 12.9732 2.29157 12.8074 2.48007L6.6326 8.03199L6.31519 10.8031L5.05856 6.9216Z" fill="currentColor"/>
</svg>
