<svg width="15" height="15" viewBox="0 0 15 15" xmlns="http://www.w3.org/2000/svg">
<path fill-rule="evenodd" clip-rule="evenodd" d="M7.87121 0.705566C6.65723 0.706105 5.46517 1.02895 4.41685 1.64113C3.36853 2.25331 2.50154 3.13285 1.9045 4.18986C1.30747 5.24688 1.00179 6.44347 1.01871 7.65733C1.03563 8.87118 1.37454 10.0588 2.0008 11.0988L0.763672 14.782L4.55523 13.5676C5.47092 14.0731 6.49013 14.3623 7.53483 14.4131C8.57952 14.464 9.62201 14.2751 10.5825 13.8609C11.5429 13.4468 12.3958 12.8184 13.076 12.0237C13.7561 11.2291 14.2454 10.2894 14.5064 9.27659C14.7674 8.26374 14.7931 7.2046 14.5817 6.18026C14.3702 5.15592 13.9272 4.19354 13.2864 3.36682C12.6457 2.5401 11.8243 1.87096 10.8851 1.41062C9.94596 0.950287 8.91389 0.710958 7.86796 0.710975L7.87121 0.705566ZM7.87121 13.2654C6.75404 13.2676 5.66111 12.9397 4.72964 12.3229L2.53704 13.0238L3.24876 10.9059C2.49756 9.86826 2.11748 8.60796 2.16974 7.328C2.22199 6.04803 2.70353 4.82292 3.53681 3.84994C4.3701 2.87697 5.50661 2.21277 6.76332 1.96434C8.02003 1.7159 9.32379 1.89768 10.4646 2.4804C11.6054 3.06312 12.5169 4.01286 13.0523 5.17666C13.5876 6.34046 13.7157 7.65058 13.4158 8.89602C13.116 10.1415 12.4056 11.2497 11.3993 12.0423C10.3929 12.8349 9.14899 13.2657 7.86796 13.2654H7.87121ZM11.0854 9.1174C10.9131 9.02316 10.0692 8.56816 9.91107 8.50317C9.7529 8.43817 9.63699 8.40566 9.51458 8.57682C9.39217 8.74798 9.04117 9.12822 8.93501 9.24089C8.82885 9.35355 8.72594 9.36439 8.55369 9.27014C8.04518 9.04587 7.57991 8.73422 7.17898 8.34933C6.80959 7.98173 6.49705 7.56112 6.25168 7.10137C6.15526 6.92262 6.25167 6.83162 6.34159 6.74821C6.4315 6.6648 6.52467 6.54997 6.61566 6.45139C6.69109 6.36564 6.7535 6.2693 6.80091 6.16541C6.82613 6.11825 6.83933 6.06559 6.83933 6.01212C6.83933 5.95864 6.82613 5.90598 6.80091 5.85882C6.75975 5.76999 6.44234 4.89578 6.30909 4.54046C6.17584 4.18513 6.0296 4.23712 5.92669 4.23279C5.82377 4.22845 5.71003 4.21112 5.59195 4.20679C5.50327 4.20539 5.41528 4.22248 5.33358 4.25699C5.25188 4.29149 5.17828 4.34265 5.11746 4.4072C4.9126 4.58719 4.74747 4.80787 4.63258 5.05518C4.51769 5.30249 4.45556 5.57101 4.45015 5.84366C4.41873 6.7103 5.01346 7.55961 5.10013 7.68527C5.18679 7.81093 6.23759 9.67096 7.98929 10.439C9.74099 11.2071 9.75182 10.972 10.0725 10.9547C10.3931 10.9373 11.1244 10.5701 11.2847 10.1671C11.445 9.76413 11.4591 9.4088 11.4179 9.33947C11.3768 9.27014 11.2565 9.21165 11.0854 9.1174Z" fill="currentColor"/>
</svg>
