<svg width="48" height="48" viewBox="0 0 48 48" fill="none" xmlns="http://www.w3.org/2000/svg">
<path d="M15.3989 7.48C17.8828 5.90996 20.834 5 24 5C32.8366 5 40 12.0888 40 20.8333C40 31.689 27.2 43 24 43C20.8 43 8 31.689 8 20.8333C8 18.0501 8.72567 15.4346 10 13.1621" stroke="#2C2C2C" stroke-width="3" stroke-linecap="round"/>
<path d="M29.7685 21.6563C29.9192 21.1302 30 20.5745 30 20C30 16.6863 27.3137 14 24 14C20.6863 14 18 16.6863 18 20C18 23.3137 20.6863 26 24 26C24.4601 26 24.9082 25.9482 25.3386 25.8501" stroke="#2C2C2C" stroke-width="3" stroke-linecap="round"/>
</svg>
