<svg width="0" height="0" class="hidden">
  <symbol xmlns="http://www.w3.org/2000/svg" viewBox="0 0 9 6" id="ic_arr_ver">
    <path d="M1 1L4.5 4.5L8 1" stroke="currentColor" stroke-linecap="round" fill="none"></path>
  </symbol>
  <symbol xmlns="http://www.w3.org/2000/svg" viewBox="0 0 19 11" id="ic_arrow_hor">
    <path d="M18 5.5L1 5.5M1 5.5L5.5 10M1 5.5L5.5 1" stroke="currentColor" stroke-linecap="round" stroke-linejoin="round" fill="none"></path>
  </symbol>
  <symbol xmlns="http://www.w3.org/2000/svg" viewBox="0 0 11 19" id="ic_arrow_ver">
    <path d="M5.5 1V18M5.5 18L1 13.5M5.5 18L10 13.5" stroke="currentColor" stroke-linecap="round" stroke-linejoin="round" fill="none"></path>
  </symbol>
  <symbol xmlns="http://www.w3.org/2000/svg" viewBox="0 0 7 6" id="ic_check">
    <path d="M1 2.5L3 4.5L6.5 1" stroke="currentColor" fill="none"></path>
  </symbol>
  <symbol xmlns="http://www.w3.org/2000/svg" viewBox="0 0 26 26" id="ic_close">
    <path d="M25.5 1L13.25 13.25M1 25.5L13.25 13.25M13.25 13.25L1 1L25.5 25.5" stroke="currentColor" fill="none"></path>
  </symbol>
  <symbol xmlns="http://www.w3.org/2000/svg" viewBox="0 0 65 18" id="ic_menu">
    <path d="M0 17L64.5 17" stroke="currentColor" fill="none"></path>
    <path d="M0 1L64.5 1" stroke="currentColor" fill="none"></path>
  </symbol>
  <symbol xmlns="http://www.w3.org/2000/svg" viewBox="0 0 28 28" id="ic_pdf">
    <path d="M22.3572 17.9527C21.7522 16.8601 19.1025 16.1642 16.7627 16.0323C16.5512 15.8059 16.3366 15.5677 16.1165 15.3174C14.1058 13.0183 13.2915 9.67726 12.9874 7.90731C12.9512 7.53226 12.9115 7.22048 12.878 6.98822C12.8509 6.80341 12.794 6.41797 12.3932 6.41797C12.2649 6.41797 12.141 6.4731 12.0529 6.57115C11.9101 6.73427 11.9314 6.9096 11.9567 7.11203C11.9852 7.34429 12.0281 7.65517 12.0891 8.00988C12.2603 9.80694 12.3412 13.2285 10.9581 15.9464C10.8139 16.2297 10.6702 16.5017 10.5274 16.7611C7.93917 17.5139 5.85066 18.8564 5.54475 19.9698C5.43404 20.3729 5.53029 20.7592 5.81632 21.0583C6.14934 21.4063 6.54246 21.5825 6.98484 21.5825C8.20939 21.5825 9.60519 20.2188 11.1334 17.5306C11.8139 17.3517 12.4894 17.227 13.1424 17.161C13.3968 17.1353 13.8084 17.0815 14.0615 17.0426C14.7587 16.9351 15.5476 16.8917 16.3583 16.9184C18.2344 18.8686 19.7685 19.8573 20.918 19.8573C21.5353 19.8568 22.0463 19.5559 22.3563 19.01C22.547 18.672 22.5479 18.2961 22.3572 17.9527ZM6.98439 20.6788C6.7928 20.6788 6.62922 20.6011 6.46881 20.4334C6.40329 20.3652 6.38883 20.3064 6.41594 20.2097C6.57364 19.6363 7.89851 18.6535 9.83474 17.94C8.74078 19.6661 7.69381 20.6788 6.98439 20.6788ZM13.9227 16.1507C13.6824 16.1877 13.2919 16.2383 13.0507 16.2636C12.6119 16.307 12.1609 16.3761 11.7059 16.4692C11.7249 16.4322 11.7439 16.3947 11.7628 16.3572C12.4411 15.0246 12.8613 13.4268 13.0168 11.5954C13.639 13.3369 14.4505 14.7856 15.436 15.9125C15.465 15.946 15.4952 15.9798 15.5241 16.0142C14.9553 16.0277 14.4184 16.0743 13.9227 16.1507ZM21.5683 18.5663C21.4183 18.832 21.205 18.9554 20.8991 18.9554H20.8986C20.1801 18.9554 19.0753 18.2753 17.7527 17.0282C19.7997 17.2853 21.2985 17.9048 21.5674 18.3905C21.6062 18.461 21.6062 18.4985 21.5683 18.5663Z" fill="currentColor"></path>
    <rect x="0.5" y="0.5" width="27" height="27" rx="13.5" stroke="currentColor" fill="none"></rect>
  </symbol>
  <symbol xmlns="http://www.w3.org/2000/svg" viewBox="0 0 16 13" id="ic_telegram">
    <path d="M14.4919 0.115225L1.44142 5.05833C0.727524 5.26416 0.750272 5.96939 1.27784 6.14163L4.54941 7.16209L5.80062 11.0002C5.95337 11.4195 6.07687 11.5776 6.33686 11.582C6.59685 11.5863 6.71493 11.4856 6.99875 11.2342C7.33024 10.9233 7.83614 10.4326 8.63562 9.65477L12.0372 12.1691C12.6633 12.5147 13.1205 12.3359 13.2722 11.5874L15.4052 1.03603C15.6327 0.117392 15.091 -0.156684 14.4919 0.115225ZM5.05856 6.9216L12.4911 2.26341C12.8583 2.0175 12.9732 2.29157 12.8074 2.48007L6.6326 8.03199L6.31519 10.8031L5.05856 6.9216Z" fill="currentColor"></path>
  </symbol>
  <symbol xmlns="http://www.w3.org/2000/svg" viewBox="0 0 15 15" id="ic_whatsapp">
    <path fill-rule="evenodd" clip-rule="evenodd" d="M7.87121 0.705566C6.65723 0.706105 5.46517 1.02895 4.41685 1.64113C3.36853 2.25331 2.50154 3.13285 1.9045 4.18986C1.30747 5.24688 1.00179 6.44347 1.01871 7.65733C1.03563 8.87118 1.37454 10.0588 2.0008 11.0988L0.763672 14.782L4.55523 13.5676C5.47092 14.0731 6.49013 14.3623 7.53483 14.4131C8.57952 14.464 9.62201 14.2751 10.5825 13.8609C11.5429 13.4468 12.3958 12.8184 13.076 12.0237C13.7561 11.2291 14.2454 10.2894 14.5064 9.27659C14.7674 8.26374 14.7931 7.2046 14.5817 6.18026C14.3702 5.15592 13.9272 4.19354 13.2864 3.36682C12.6457 2.5401 11.8243 1.87096 10.8851 1.41062C9.94596 0.950287 8.91389 0.710958 7.86796 0.710975L7.87121 0.705566ZM7.87121 13.2654C6.75404 13.2676 5.66111 12.9397 4.72964 12.3229L2.53704 13.0238L3.24876 10.9059C2.49756 9.86826 2.11748 8.60796 2.16974 7.328C2.22199 6.04803 2.70353 4.82292 3.53681 3.84994C4.3701 2.87697 5.50661 2.21277 6.76332 1.96434C8.02003 1.7159 9.32379 1.89768 10.4646 2.4804C11.6054 3.06312 12.5169 4.01286 13.0523 5.17666C13.5876 6.34046 13.7157 7.65058 13.4158 8.89602C13.116 10.1415 12.4056 11.2497 11.3993 12.0423C10.3929 12.8349 9.14899 13.2657 7.86796 13.2654H7.87121ZM11.0854 9.1174C10.9131 9.02316 10.0692 8.56816 9.91107 8.50317C9.7529 8.43817 9.63699 8.40566 9.51458 8.57682C9.39217 8.74798 9.04117 9.12822 8.93501 9.24089C8.82885 9.35355 8.72594 9.36439 8.55369 9.27014C8.04518 9.04587 7.57991 8.73422 7.17898 8.34933C6.80959 7.98173 6.49705 7.56112 6.25168 7.10137C6.15526 6.92262 6.25167 6.83162 6.34159 6.74821C6.4315 6.6648 6.52467 6.54997 6.61566 6.45139C6.69109 6.36564 6.7535 6.2693 6.80091 6.16541C6.82613 6.11825 6.83933 6.06559 6.83933 6.01212C6.83933 5.95864 6.82613 5.90598 6.80091 5.85882C6.75975 5.76999 6.44234 4.89578 6.30909 4.54046C6.17584 4.18513 6.0296 4.23712 5.92669 4.23279C5.82377 4.22845 5.71003 4.21112 5.59195 4.20679C5.50327 4.20539 5.41528 4.22248 5.33358 4.25699C5.25188 4.29149 5.17828 4.34265 5.11746 4.4072C4.9126 4.58719 4.74747 4.80787 4.63258 5.05518C4.51769 5.30249 4.45556 5.57101 4.45015 5.84366C4.41873 6.7103 5.01346 7.55961 5.10013 7.68527C5.18679 7.81093 6.23759 9.67096 7.98929 10.439C9.74099 11.2071 9.75182 10.972 10.0725 10.9547C10.3931 10.9373 11.1244 10.5701 11.2847 10.1671C11.445 9.76413 11.4591 9.4088 11.4179 9.33947C11.3768 9.27014 11.2565 9.21165 11.0854 9.1174Z" fill="currentColor"></path>
  </symbol>
</svg>